<svg width="500" height="500" viewBox="0 0 500 500" fill="none" xmlns="http://www.w3.org/2000/svg">
<path fill-rule="evenodd" clip-rule="evenodd" d="M157.477 29C157.477 15.7452 168.222 5 181.477 5H319.477C332.731 5 343.477 15.7452 343.477 29V87C343.477 100.255 332.731 111 319.477 111H181.477C168.222 111 157.477 100.255 157.477 87V29ZM181.477 21C177.058 21 173.477 24.5817 173.477 29V87C173.477 91.4183 177.058 95 181.477 95H319.477C323.895 95 327.477 91.4183 327.477 87V29C327.477 24.5817 323.895 21 319.477 21H181.477Z" fill="white"/>
<path fill-rule="evenodd" clip-rule="evenodd" d="M96.9063 109.402L96.9062 66H112.906L112.906 111.983L173.293 172.37C179.162 163.67 187.208 156.405 196.904 151.441L210.372 144.545C235.554 131.652 265.399 131.652 290.581 144.545L304.049 151.441C313.745 156.405 321.79 163.669 327.659 172.368L388.039 111.987V66H404.039V109.398C428.501 134.459 439.829 167.586 438.281 200.194L449.446 197.202L451.517 204.929C459.59 235.06 455.129 265.6 441.346 291H451.383V299C451.383 329.54 439.153 357.227 419.343 377.424L434.618 381.517L432.548 389.244C418.331 442.303 365.636 474.807 312.623 466.271C297.866 483.824 275.726 495 250.977 495C226.159 495 203.964 483.762 189.208 466.125C135.897 475.167 82.6972 442.597 68.4015 389.244L66.3309 381.517L81.6064 377.424C61.7965 357.227 49.5664 329.54 49.5664 299L49.5664 291H59.6074C45.8247 265.6 41.3633 235.06 49.4367 204.929L51.5072 197.202L62.6681 200.193C61.1205 167.587 72.4478 134.462 96.9063 109.402ZM103.42 126C84.4671 148.334 76.3626 176.839 79.0189 204.595L190.982 235.059C195.188 231.657 199.839 228.783 204.833 226.538L104.296 126H103.42ZM222.462 221.539C225.178 221.183 227.946 221 230.753 221H270.269C273.144 221 275.974 221.192 278.747 221.564L316.069 183.985C311.598 176.3 304.97 169.887 296.757 165.683L283.289 158.787C262.686 148.239 238.267 148.238 217.664 158.787L204.196 165.683C195.989 169.885 189.364 176.291 184.893 183.97L222.462 221.539ZM331.47 191.183L296.302 226.593C301.245 228.83 305.849 231.685 310.015 235.058L421.93 204.597C424.587 176.84 416.483 148.335 397.529 126H396.654L331.49 191.164L331.47 191.183ZM431.299 218.629L322.292 248.298C329.345 258.497 333.477 270.87 333.477 284.208C333.477 286.482 333.354 288.75 333.111 291H422.699C436.748 269.78 442.756 243.397 437.831 216.879L431.33 218.621L431.299 218.629ZM435.054 307H331.458L331.477 353.88L401.1 372.536C420.158 356.523 432.889 333.26 435.054 307ZM331.477 370.445V414.5C331.477 427.774 328.258 440.31 322.561 451.356C362.506 454.459 400.732 430.755 414.676 392.738L331.477 370.445ZM315.469 327.278C311.317 331.131 306.476 334.364 300.977 336.768C289.021 341.997 274.14 347.413 260 349.301V478.374C277.545 475.919 292.83 466.408 302.898 452.776C310.805 442.07 315.477 428.842 315.477 414.5L315.469 327.278ZM244 478.627V349.719C229.02 348.38 212.742 342.492 199.854 336.813C194.836 334.601 190.369 331.701 186.477 328.268V414.5C186.477 428.769 191.1 441.934 198.933 452.61C209.388 466.86 225.527 476.642 244 478.627ZM167.835 291C167.597 288.772 167.477 286.527 167.477 284.276C167.477 270.908 171.621 258.511 178.694 248.297L69.65 218.628L69.6202 218.62L63.1223 216.879C58.197 243.397 64.2056 269.78 78.2544 291H167.835ZM65.8948 307C68.06 333.257 80.7882 356.518 99.8438 372.531L170.477 353.491V307H65.8948ZM170.477 370.062L100.066 389.042L86.2731 392.738C100.33 431.061 139.06 454.839 179.351 451.276C173.679 440.249 170.477 427.742 170.477 414.5V370.062ZM215.008 239.683C210.257 246.599 207.477 254.975 207.477 264C207.477 287.748 226.728 307 250.477 307C274.225 307 293.477 287.748 293.477 264C293.477 254.965 290.69 246.581 285.929 239.66C304.304 246.119 317.477 263.625 317.477 284.208C317.477 300.908 308.87 315.854 294.566 322.109C279.992 328.482 263.142 334.08 249.804 333.999C236.832 333.92 220.506 328.429 206.306 322.171C192.044 315.886 183.477 300.952 183.477 284.276C183.477 263.692 196.638 246.168 215.008 239.683ZM250.477 237C235.565 237 223.477 249.088 223.477 264C223.477 278.912 235.565 291 250.477 291C265.388 291 277.477 278.912 277.477 264C277.477 249.088 265.388 237 250.477 237Z" fill="white"/>
</svg>
